<?xml version="1.0" standalone="no"?>
<!DOCTYPE svg PUBLIC "-//W3C//DTD SVG 20010904//EN"
 "http://www.w3.org/TR/2001/REC-SVG-20010904/DTD/svg10.dtd">
<svg version="1.0" xmlns="http://www.w3.org/2000/svg"
 width="425.000000pt" height="425.000000pt" viewBox="0 0 425.000000 425.000000"
 preserveAspectRatio="xMidYMid meet">
<metadata>
Created by potrace 1.11, written by Peter Selinger 2001-2013
</metadata>
<g transform="translate(0.000000,425.000000) scale(0.100000,-0.100000)"
fill="#000000" stroke="none">
<path d="M0 2125 l0 -2125 2125 0 2125 0 0 2125 0 2125 -2125 0 -2125 0 0
-2125z m1196 1474 c11 -9 24 -9 59 1 46 13 61 12 205 -14 47 -8 125 -20 174
-27 76 -10 109 -21 232 -80 116 -55 155 -79 198 -121 59 -59 110 -157 119
-226 8 -67 -9 -157 -42 -227 -17 -35 -31 -69 -31 -75 0 -19 -57 -122 -86 -155
-14 -17 -44 -55 -65 -87 -21 -31 -54 -69 -73 -85 -19 -15 -50 -55 -70 -89 -54
-94 -313 -412 -408 -502 -31 -29 -64 -71 -73 -94 -14 -35 -118 -180 -187 -259
-137 -158 -214 -261 -240 -317 -11 -24 -18 -46 -15 -48 8 -8 342 -11 372 -3
17 4 93 12 170 18 77 6 165 18 195 26 30 8 107 26 170 40 63 14 142 35 175 46
107 36 158 47 280 58 245 22 352 33 423 42 40 5 309 9 598 9 l524 0 0 -120 0
-120 -572 0 c-315 -1 -604 -5 -643 -10 -38 -5 -110 -14 -160 -20 -280 -34
-388 -54 -525 -96 -80 -24 -181 -53 -225 -63 -173 -41 -203 -50 -285 -80 -99
-35 -352 -101 -526 -136 -203 -41 -317 -31 -388 35 -41 39 -41 39 -44 123 -5
100 14 176 60 252 53 86 149 207 240 300 48 50 106 115 130 146 24 31 88 115
144 185 56 71 118 154 139 184 21 30 62 80 90 110 85 91 126 146 257 345 198
303 277 446 286 520 4 37 1 44 -29 70 -33 27 -114 68 -174 87 -16 5 -75 13
-131 18 -55 5 -128 16 -162 25 -56 14 -65 14 -99 -1 -33 -13 -46 -14 -91 -3
-39 9 -83 10 -175 3 -146 -12 -181 -4 -197 39 -16 47 -13 64 28 140 21 40 42
86 46 102 17 69 68 120 146 146 36 12 238 3 256 -12z m1821 -605 c34 -9 52
-57 42 -112 -10 -50 -30 -76 -92 -119 -23 -15 -105 -91 -182 -168 -78 -77
-159 -156 -181 -176 -21 -20 -52 -55 -69 -79 -16 -23 -77 -86 -134 -139 -91
-85 -221 -244 -221 -271 0 -29 95 22 171 92 108 99 200 178 220 189 13 7 58
48 101 91 128 131 260 175 312 105 19 -25 21 -44 24 -175 3 -177 4 -182 43
-227 26 -30 37 -35 74 -35 39 0 48 5 104 61 33 33 66 59 73 57 6 -2 27 -40 46
-84 l34 -79 -97 -92 c-127 -121 -214 -167 -315 -166 -70 1 -145 26 -183 61
-39 35 -86 157 -87 227 0 17 -6 40 -13 53 l-13 23 -20 -22 c-10 -12 -46 -42
-79 -67 -33 -25 -114 -98 -180 -162 -125 -120 -217 -188 -338 -247 -61 -29
-79 -34 -120 -29 -98 11 -147 71 -147 179 0 56 23 116 66 172 32 43 30 72 -16
172 l-33 71 29 45 c20 32 56 64 121 108 70 46 103 75 130 116 19 29 45 59 57
65 11 6 48 37 81 68 33 32 85 74 115 95 30 21 93 73 140 115 252 227 419 315
537 284z"/>
</g>
</svg>
